<svg xmlns="http://www.w3.org/2000/svg" viewBox="0 0 5000 5000"><defs><style>.a{fill:#343d66;}.b{fill:#ee883f;}</style></defs><path class="a" d="M2540.32,910.85l920.52,531.46V2505.23L2540.32,3036.7l-920.51-531.47V1442.31l920.51-531.46m0-156.93-68,39.23-920.51,531.46-68,39.23V2583.69l67.95,39.24,920.52,531.47,68,39.23,68-39.23,920.51-531.47,67.95-39.24V1363.84l-67.95-39.23L2608.28,793.15l-68-39.23Z"/><polygon class="b" points="2540.32 1990.52 2540.32 2816.99 1810.08 2395.38 1810.08 1552.16 2540.32 1990.52"/><polygon class="a" points="1810.08 1552.16 2358.6 1235.47 2658.56 1621.09 2540.32 1784.18 2306.21 1469.94 1983.5 1656.26 1983.5 2117.15 2357.53 1880.79 2540.32 1990.52 2540.32 2008.43 2258.77 2170.98 2540.32 2725.34 2540.32 2816.99 2267.63 2659.55 2108.14 2229.28 1992.87 2295.83 1992.87 2500.91 1810.08 2395.38 1810.08 1552.16"/><polygon class="b" points="2540.32 1990.52 2540.32 2816.99 3270.57 2395.38 3270.57 1552.16 2540.32 1990.52"/><path class="a" d="M516,4230.05V4198L754.94,3692.9H899.25L1138.16,4198v32.07H1008.29l-46.5-104.23H691.61l-45.7,104.23Zm392.84-224.49L827.1,3822l-81.78,183.59Z"/><path class="a" d="M1320,4051.26l16-358.36h489v537.15h-144.3V3821.17h-210l-10.42,246.14c-6.42,112.23-45.71,172.36-170,172.36-24,0-50.5-1.6-69.75-8V4109a418.72,418.72,0,0,0,44.09,2.41C1307.17,4111.4,1318.4,4090.55,1320,4051.26Z"/><path class="a" d="M2500,4077.72c0,93-49.71,168.36-229.28,168.36h-22.46c-97,0-202-5.61-293.43-16V3692.9h144.32v192.41c52.1-8,107.42-8,165.14-8h22.46c166.75,0,213.25,76.17,213.25,168.37Zm-400.85-64.94v97.81c52.9,4.81,114.64,7.22,148.31,7.22,124.27,0,124.27-23.26,124.27-56.12,0-32.08,0-56.13-129.88-56.13C2192.11,4005.56,2148.82,4006.37,2099.12,4012.78Z"/><path class="a" d="M2597.66,4230.05V4198l99.42-157.14c-68.95-29.66-91.41-88.19-91.41-155.53v-32.07c0-97,49.72-176.37,229.31-176.37h22.44c97,0,202,5.61,293.43,16v537.15h-144.3V4053.68c-51.31,8-105.84,8-162,8l-107.43,168.36ZM2750,3860.46c0,50.5,2.4,73,130.67,73,27.26,0,76.16-.81,125.88-7.22V3812.35c-52.92-4.81-113.85-7.21-150.74-7.21C2750.79,3805.14,2750,3831.59,2750,3860.46Z"/><path class="a" d="M3424.9,3692.9v208.44h280.6V3692.9h144.3v537.15H3705.5V4029.61H3424.9v200.44H3280.58V3692.9Z"/><path class="a" d="M3971.5,3940.62c0-145.1,63.33-263.75,290.22-263.75h28.86a831,831,0,0,1,206.85,26.45V3834c-73.77-21.65-156.33-29.67-210.85-29.67-167.57,0-167.57,65.75-167.57,157.14s0,157.94,167.57,157.94c54.52,0,137.08-8.82,210.85-30.46v131.48c-65.74,16-134.69,25.65-206.85,25.65h-28.86c-226.89,0-290.22-118.65-290.22-263.77Z"/><path class="a" d="M2243.37,3514.81l-59.64-83.44v126.91H2126.6V3345.7h57.13L2258,3454.53l74.25-108.83h57.11v212.58h-57.11V3431.37l-59.66,83.44Z"/><path class="a" d="M2490.91,3345.7v82.49h36.49l69.16-82.49h55.85v12.69L2574,3452l78.38,93.61v12.69h-55.85L2529.93,3479h-39v79.33h-57.12V3345.7Z"/><path class="a" d="M2741.29,3345.7v82.49h36.48l69.16-82.49h55.85v12.69L2824.41,3452l78.37,93.61v12.69h-55.85L2780.31,3479h-39v79.33h-57.12V3345.7Z"/><rect class="a" x="500" y="3427.4" width="1458.64" height="50.07"/><rect class="a" x="3041.36" y="3427.4" width="1458.64" height="50.07"/><polygon class="a" points="3270.57 1552.16 2722.05 1235.47 2422.09 1621.09 2540.32 1784.18 2774.44 1469.94 3097.15 1656.26 3097.15 2117.15 2723.12 1880.79 2540.32 1990.52 2540.32 2008.43 2821.88 2170.98 2540.32 2725.34 2540.32 2816.99 2813.02 2659.55 2972.51 2229.28 3087.78 2295.83 3087.78 2500.91 3270.57 2395.38 3270.57 1552.16"/></svg>